# xmcd
#
# Track frame offsets: 
#        150
#        5391
#        26162
#        46063
#        62385
#        80058
#        98040
#        119922
#        138011
#        153961
#        171840
#        189783
#        203736
#        219396
#
# Disc length: 2983 seconds
#
# Revision: 0
# Processed by: cddbd v1.5.2PL0 Copyright (c) Steve Scherf et al.
# Submitted via: ExactAudioCopy v1.0b4
#
DISCID=b00ba50e
DTITLE=Manu Dibango - Past Present Future
DYEAR=2015
DGENRE=Funk
TTITLE0=Manu Dibango (feat. Lalcko)
TTITLE1=Afreedom (feat. Wayne Beckford and Xmaleya)
TTITLE2=Elolombe (featuring KOF)
TTITLE3=Oum Song (feat. Oum)
TTITLE4=Bantou Life (feat. Passi)
TTITLE5=Douala Memphis (feat. Wayne Beckford)
TTITLE6=Paris je t'aime d'amour
TTITLE7=The Manu Walk
TTITLE8=Haters Anthem (feat. Wayne Beckford)
TTITLE9=Keep on running (feat. Wayne Beckford)
TTITLE10=Shallow Waters (feat. Safehaus)
TTITLE11=Africa (feat. Wayne Beckford, Djany and Chantal Ayissi)
TTITLE12=Soul Makossa 2.0
TTITLE13=Kamer Lion (feat. Slim Pezin and Chantal Ayissi)
EXTD=
EXTT0=
EXTT1=
EXTT2=
EXTT3=
EXTT4=
EXTT5=
EXTT6=
EXTT7=
EXTT8=
EXTT9=
EXTT10=
EXTT11=
EXTT12=
EXTT13=
PLAYORDER=
